<?xml version="1.0" standalone="no"?>
<!DOCTYPE svg PUBLIC "-//W3C//DTD SVG 20010904//EN"
 "http://www.w3.org/TR/2001/REC-SVG-20010904/DTD/svg10.dtd">
<svg version="1.0" xmlns="http://www.w3.org/2000/svg"
 width="150.000000pt" height="150.000000pt" viewBox="0 0 150.000000 150.000000"
 preserveAspectRatio="xMidYMid meet">
<metadata>
Created by potrace 1.11, written by Peter Selinger 2001-2013
</metadata>
<g transform="translate(0.000000,150.000000) scale(0.100000,-0.100000)"
fill="#000000" stroke="none">
<path d="M340 1469 c0 -6 -9 -9 -20 -6 -10 3 -21 0 -22 -5 -2 -6 -32 -10 -66
-9 -49 0 -62 -3 -62 -15 0 -8 -4 -13 -9 -10 -5 4 -11 0 -14 -6 -3 -10 -7 -10
-18 -2 -8 6 -24 14 -36 17 -50 12 -87 -69 -43 -93 11 -6 19 -14 19 -18 -4 -22
4 -34 28 -43 18 -7 28 -6 33 1 5 7 15 8 33 1 34 -13 34 -17 -3 -36 -64 -33
-88 -69 -56 -81 20 -8 10 -29 -19 -42 -22 -10 -23 -15 -15 -37 7 -17 7 -24 0
-20 -6 3 -10 1 -10 -5 0 -6 -5 -8 -13 -4 -8 5 -8 2 2 -9 8 -11 9 -17 3 -17 -6
0 -9 -7 -6 -15 5 -12 9 -13 21 -4 8 7 13 8 12 3 -5 -26 2 -35 21 -29 18 6 19
4 10 -19 -6 -16 -6 -27 0 -31 20 -12 10 -24 -12 -16 -13 5 -22 14 -20 20 1 6
-2 11 -8 11 -5 0 -10 -9 -10 -19 0 -11 -5 -23 -11 -26 -5 -4 -9 -14 -7 -23 2
-10 -3 -22 -12 -29 -12 -10 -11 -11 10 -6 24 6 24 5 -7 -26 -30 -28 -33 -37
-33 -92 0 -56 2 -60 20 -54 13 4 20 2 20 -7 0 -10 2 -10 8 -1 8 13 30 17 72
15 l25 -2 -25 -18 c-15 -10 -24 -24 -22 -34 2 -11 -3 -18 -12 -18 -22 0 -56
-31 -56 -51 0 -10 -4 -19 -8 -21 -13 -5 -23 -68 -12 -68 6 0 8 -11 4 -24 -4
-17 0 -25 13 -31 30 -13 64 -15 57 -3 -4 6 1 8 15 3 16 -5 21 -2 21 12 0 28
20 45 37 32 10 -9 13 -8 13 4 0 10 6 14 14 11 7 -3 16 2 19 10 4 9 13 13 21
10 22 -8 46 18 35 38 -7 12 -1 24 21 46 16 17 30 28 30 24 0 -3 5 -1 12 6 8 8
15 9 25 0 11 -9 12 -7 7 7 -5 13 -4 16 4 11 8 -5 10 -2 6 9 -5 12 -2 16 11 13
11 -2 19 4 21 16 1 10 8 24 15 30 9 8 9 6 0 -11 -10 -19 -9 -23 4 -23 9 0 14
4 11 8 -7 12 33 44 46 36 7 -5 9 -2 5 9 -4 11 -2 14 7 11 8 -3 16 4 19 16 4
18 3 19 -9 9 -12 -10 -13 -9 -8 5 3 9 13 16 21 16 8 0 11 5 7 12 -5 8 -2 9 9
5 9 -3 19 -2 22 2 3 5 14 7 25 4 14 -4 20 0 20 10 0 11 6 13 22 9 18 -4 20 -2
16 16 -6 21 1 27 31 23 8 -2 10 3 5 11 -4 7 -4 10 1 6 4 -4 14 -3 21 3 8 7 14
7 19 -1 3 -5 11 -10 16 -10 6 0 7 5 3 11 -4 8 1 9 16 4 18 -6 22 -4 17 8 -5
12 0 14 21 11 19 -3 23 -2 13 5 -9 6 -11 16 -6 27 7 18 8 18 15 -1 8 -19 9
-19 9 -1 1 14 6 17 22 13 15 -4 23 0 26 14 4 15 8 17 19 8 11 -9 14 -8 14 6 0
17 1 17 20 0 21 -19 18 -37 -5 -29 -8 4 -18 -1 -21 -10 -3 -9 -13 -16 -20 -16
-8 0 -17 -7 -20 -15 -4 -8 -13 -15 -20 -15 -8 0 -17 -7 -20 -15 -4 -8 -15 -15
-25 -15 -10 0 -19 -7 -19 -15 0 -8 -7 -15 -15 -15 -8 0 -15 -4 -15 -9 0 -5 -7
-17 -16 -25 -8 -9 -16 -25 -17 -37 -1 -19 -2 -19 -14 -3 -11 15 -13 15 -22
-10 -11 -27 -31 -36 -31 -13 0 8 -4 7 -10 -3 -5 -8 -7 -22 -4 -32 2 -9 -1 -20
-7 -24 -7 -4 -10 -3 -7 2 3 5 2 18 -3 29 -7 18 -8 18 -8 2 -1 -10 -5 -15 -11
-12 -10 6 -11 3 -14 -34 0 -11 -4 -23 -8 -27 -4 -4 -3 -13 4 -21 18 -22 2 -26
-19 -4 -22 23 -68 19 -59 -6 8 -19 -20 -49 -27 -30 -3 7 -6 4 -6 -6 -1 -11 -5
-15 -13 -11 -8 5 -9 2 -5 -9 5 -14 2 -16 -21 -11 -15 4 -24 3 -20 -1 5 -5 -22
-23 -59 -41 -36 -18 -70 -39 -75 -46 -7 -9 -11 -10 -14 -2 -7 17 -52 4 -57
-17 -3 -10 -1 -17 4 -13 5 3 9 1 9 -4 0 -14 -59 -21 -64 -8 -2 6 -5 1 -5 -11
-1 -13 -7 -23 -15 -23 -10 0 -13 -9 -9 -31 4 -31 4 -31 -18 -15 -27 19 -50 6
-42 -24 5 -18 -5 -25 -30 -21 -5 1 -6 -3 -3 -8 4 -5 3 -12 -2 -15 -4 -2 -9
-20 -10 -40 -2 -25 3 -38 15 -45 15 -8 16 -13 6 -29 -11 -18 -9 -19 10 -14 18
4 20 3 11 -9 -28 -37 35 -106 82 -88 13 4 26 3 33 -4 6 -6 12 -8 12 -4 1 4 3
12 4 17 1 6 3 17 4 25 0 9 9 19 19 22 9 4 22 14 29 22 11 14 12 14 13 -1 0
-11 5 -15 15 -12 8 4 15 1 15 -6 0 -6 5 -8 11 -5 6 4 8 13 6 20 -7 16 30 48
45 39 7 -4 8 -3 4 4 -4 7 -2 12 3 12 6 0 11 -9 11 -21 0 -11 -4 -17 -10 -14
-5 3 -11 -4 -11 -17 -1 -17 -3 -18 -6 -5 -2 9 -8 17 -13 17 -4 0 -3 -13 3 -30
6 -16 15 -30 19 -30 4 0 8 -7 8 -16 0 -8 -4 -12 -10 -9 -5 3 -10 2 -10 -3 0
-22 68 -30 88 -10 9 9 12 9 12 -2 0 -7 3 -10 6 -7 4 4 1 13 -6 21 -17 21 11
51 29 33 9 -9 11 -8 5 7 -4 11 -3 17 2 14 5 -4 10 6 11 20 0 15 6 28 12 30 6
2 8 9 4 15 -3 7 -3 9 1 5 5 -4 19 -2 33 3 18 6 30 6 39 -2 11 -9 14 -7 14 7 0
16 2 16 10 4 8 -12 10 -12 16 3 3 9 0 25 -7 34 -9 11 -10 14 -2 10 7 -5 21 1
33 13 12 12 20 15 20 8 0 -10 3 -9 9 1 5 7 13 11 19 7 5 -3 10 6 10 20 0 29
52 80 63 62 4 -5 9 -2 13 7 3 9 11 13 17 10 6 -4 13 2 16 14 3 12 13 21 24 21
10 0 20 4 24 9 3 6 13 10 23 10 39 0 112 10 122 16 6 3 7 12 4 18 -4 7 -1 6 7
-2 11 -10 11 -15 2 -18 -7 -3 -13 -13 -13 -24 0 -19 -9 -23 -42 -20 -10 1 -18
-4 -18 -11 0 -9 -3 -9 -10 2 -8 13 -10 12 -10 -3 0 -10 -4 -16 -9 -12 -12 7
-25 -31 -16 -45 3 -5 -1 -10 -9 -10 -9 0 -27 -10 -41 -21 -19 -17 -22 -26 -15
-40 8 -14 5 -19 -12 -25 -12 -3 -28 -13 -36 -20 -7 -8 -22 -14 -32 -14 -10 0
-21 -7 -24 -15 -3 -9 -14 -15 -23 -13 -10 2 -18 -3 -19 -9 -1 -7 -2 -19 -3
-25 -1 -8 -7 -6 -16 5 -13 18 -14 18 -27 -2 -16 -26 -25 -27 -31 -3 -4 13 -5
12 -6 -5 0 -12 -6 -23 -12 -25 -9 -3 -9 -12 -2 -34 l10 -29 111 -2 c104 -1
112 0 112 17 0 13 5 17 15 14 10 -4 15 0 15 11 0 9 5 13 10 10 12 -7 42 13 36
24 -2 3 7 7 20 7 13 1 31 9 40 19 10 10 27 15 40 12 13 -2 21 -1 19 4 -8 12
24 39 46 39 16 0 19 -4 13 -22 -3 -13 -11 -25 -15 -26 -5 -2 -7 -8 -3 -13 3
-5 -2 -12 -10 -15 -13 -5 -13 -8 -1 -20 7 -8 21 -11 29 -8 10 4 16 1 16 -9 0
-8 6 -17 13 -20 6 -3 2 -4 -9 -4 -12 1 -21 6 -20 12 2 5 1 7 -1 2 -3 -4 -9 -5
-13 -2 -5 3 -12 0 -16 -6 -4 -7 -3 -9 4 -5 5 3 12 1 14 -5 5 -16 70 -22 80 -7
6 10 10 10 18 -2 7 -11 10 -12 10 -2 0 22 24 39 54 39 16 0 32 7 37 14 4 7 11
10 16 6 4 -4 2 -16 -4 -25 -8 -14 -7 -18 6 -19 28 -1 75 -10 96 -18 11 -4 16
-3 10 2 -17 14 -18 43 0 37 8 -4 15 -1 15 6 0 7 6 10 14 7 8 -3 17 1 20 9 3 8
17 14 31 14 22 0 25 3 20 28 -3 15 -2 21 1 15 10 -22 21 -14 22 15 0 16 -10
41 -23 58 -19 23 -24 25 -25 11 0 -11 4 -15 12 -11 7 4 8 3 4 -5 -6 -8 -12 -9
-20 -2 -7 6 -16 8 -19 4 -4 -3 -7 2 -8 13 0 10 -3 13 -6 7 -2 -7 -12 -13 -22
-13 -9 0 -22 -5 -29 -12 -9 -9 -12 -9 -12 0 0 7 -4 12 -10 12 -5 0 -7 -8 -3
-18 6 -15 3 -14 -17 3 -13 11 -20 14 -16 8 5 -9 -1 -13 -19 -13 -25 0 -25 1
-9 23 16 20 64 32 64 15 0 -5 5 -8 11 -8 5 0 7 4 4 10 -3 5 -1 10 4 10 6 0 10
3 10 8 -6 38 2 51 34 49 26 -2 31 1 29 17 -3 14 1 17 13 12 13 -5 15 -2 10 14
-8 25 3 26 22 3 8 -10 11 -12 7 -4 -3 7 -1 17 7 22 8 5 15 34 17 80 5 77 -6
96 -40 78 -10 -5 -18 -7 -18 -4 0 3 -11 -6 -25 -20 -14 -14 -30 -25 -36 -25
-6 0 -7 -4 -4 -10 3 -5 -1 -10 -10 -10 -8 0 -18 -7 -21 -15 -7 -16 -34 -21
-34 -6 0 9 -16 5 -72 -15 -26 -9 -22 -27 3 -19 16 5 20 3 17 -6 -3 -8 -9 -14
-14 -14 -5 0 -14 -4 -21 -8 -6 -4 -14 -1 -16 5 -4 10 -6 10 -6 0 -1 -7 -5 -10
-11 -7 -5 3 -10 2 -10 -4 0 -6 -13 -17 -30 -26 -27 -14 -30 -14 -30 0 0 15 11
19 40 16 9 -2 6 4 -8 14 -12 9 -19 21 -16 27 4 7 2 8 -5 4 -9 -6 -9 -11 0 -22
7 -9 8 -14 1 -14 -13 0 -20 20 -14 42 4 18 26 19 51 4 10 -6 12 -5 7 2 -4 7
-3 12 3 12 6 0 7 8 4 17 -5 12 -2 15 10 10 9 -3 17 -2 17 3 0 6 11 10 25 10
14 0 25 5 25 11 0 5 -5 7 -11 3 -7 -4 -10 -1 -7 7 3 8 11 13 17 12 15 -4 14
14 -1 20 -10 4 -10 6 0 6 7 1 11 5 7 11 -3 5 7 17 22 27 15 9 36 25 46 35 9 9
35 22 57 28 25 7 40 17 40 26 0 10 -6 14 -15 10 -8 -3 -15 -1 -15 4 0 10 21
14 48 11 7 -1 20 6 29 15 16 16 16 16 -7 10 -23 -7 -24 -6 -7 8 12 9 14 16 7
21 -6 3 -9 13 -8 21 2 8 -11 24 -29 35 l-31 20 4 -23 5 -23 -13 21 c-11 19
-15 20 -26 8 -7 -8 -18 -12 -24 -8 -6 4 -14 0 -19 -7 -7 -11 -11 -11 -17 -2
-4 7 -17 10 -30 6 -17 -4 -21 -10 -16 -29 6 -22 -2 -29 -28 -25 -5 0 -8 -3 -8
-9 0 -5 -8 -6 -17 -3 -16 6 -16 5 -3 -11 13 -16 12 -18 -10 -14 -14 2 -24 9
-23 16 2 6 -2 12 -7 12 -6 0 -10 -8 -10 -18 0 -10 -7 -19 -15 -19 -8 0 -11 5
-8 10 3 5 0 7 -8 5 -8 -3 -13 -12 -13 -21 1 -9 -5 -18 -13 -22 -11 -3 -13 -1
-9 10 3 9 0 15 -9 15 -8 0 -15 -9 -15 -20 0 -13 -7 -20 -19 -20 -10 0 -22 -7
-25 -16 -3 -8 -10 -13 -15 -10 -5 4 -12 0 -14 -6 -4 -8 -6 -7 -6 4 -1 27 10
48 26 48 8 0 11 4 8 10 -3 6 2 10 13 10 10 0 24 10 30 23 6 12 11 16 11 10 1
-17 19 -16 37 2 9 8 12 15 7 15 -5 0 -9 10 -10 23 0 12 1 16 4 10 7 -19 23
-16 23 4 0 9 3 13 7 9 4 -3 13 4 20 16 11 20 12 20 13 4 0 -12 5 -16 15 -12 8
3 15 1 15 -5 0 -5 11 -2 24 8 13 10 22 22 19 27 -3 4 5 5 17 1 16 -5 20 -4 15
5 -5 9 -2 10 14 5 16 -5 21 -2 21 10 0 11 -5 15 -15 11 -20 -7 -19 6 3 24 9 8
33 14 52 13 19 -1 27 1 18 3 -10 3 -15 11 -11 20 5 13 7 13 14 2 7 -10 12 -8
25 10 13 18 19 21 30 11 8 -6 18 -9 21 -5 4 4 1 11 -7 17 -11 7 -8 8 10 4 21
-5 26 -2 26 14 0 11 -4 18 -7 15 -4 -2 -10 0 -14 6 -3 5 -1 10 4 10 6 0 11 9
11 20 0 24 -48 73 -66 66 -6 -2 -17 1 -24 7 -10 9 -11 9 -6 0 5 -8 1 -13 -9
-13 -9 0 -14 4 -11 8 2 4 -6 9 -20 10 -16 1 -24 -3 -24 -14 0 -9 -5 -12 -12
-8 -6 4 -16 1 -22 -7 -12 -17 -57 -49 -67 -49 -11 0 -19 29 -13 44 3 8 12 12
20 9 8 -3 14 0 14 7 0 7 7 10 15 7 8 -4 17 -1 21 5 4 6 3 8 -3 5 -6 -4 -14 0
-17 9 -3 8 -2 12 4 9 12 -8 50 16 50 32 0 7 11 13 25 13 16 0 25 6 25 15 0 13
4 14 21 5 11 -7 23 -9 27 -6 3 3 1 6 -5 6 -6 0 -10 10 -9 23 1 17 11 25 46 37
25 8 47 16 49 17 3 2 6 39 8 83 4 76 3 80 -17 80 -12 0 -19 4 -16 8 3 5 -1 9
-9 9 -18 0 -20 -14 -3 -19 6 -2 8 -10 4 -16 -8 -13 -30 -17 -23 -4 3 4 1 16
-4 27 -7 18 -8 18 -8 2 -1 -10 -6 -15 -11 -12 -6 4 -13 -7 -16 -23 -5 -22 -10
-28 -24 -25 -12 3 -20 -2 -23 -14 -4 -16 -5 -16 -12 3 -5 16 -13 20 -31 16
-27 -5 -33 -32 -7 -32 39 0 -24 -22 -69 -24 -12 0 -14 -4 -7 -12 13 -16 -9
-30 -24 -15 -16 16 -27 14 -27 -5 0 -9 5 -12 12 -8 7 5 8 3 3 -6 -6 -10 -12
-8 -26 8 -18 23 -41 21 -68 -5 -11 -12 -9 -13 15 -8 l29 6 -27 -16 c-16 -9
-28 -20 -28 -25 0 -6 -5 -10 -11 -10 -5 0 -8 3 -6 8 3 4 -1 13 -9 20 -12 11
-14 9 -14 -8 0 -25 -5 -25 -32 0 -13 11 -16 20 -9 20 17 0 42 26 33 35 -4 4 4
2 17 -5 21 -11 23 -10 18 4 -6 14 -3 16 13 11 11 -4 20 -3 19 2 -3 19 14 54
25 50 6 -3 18 2 27 10 20 17 15 91 -8 113 -14 13 -15 13 -8 0 6 -12 5 -13 -6
-2 -7 6 -21 12 -30 12 -10 0 -20 -6 -22 -12 -4 -10 -6 -10 -6 0 -2 23 -19 12
-30 -18 -7 -21 -17 -30 -31 -30 -14 0 -19 -4 -14 -12 6 -10 5 -10 -7 -1 -8 7
-25 10 -37 6 -17 -4 -21 -10 -16 -26 5 -15 3 -19 -9 -14 -11 4 -13 0 -10 -14
3 -10 0 -19 -6 -19 -6 0 -11 5 -11 10 0 6 -6 10 -14 10 -9 0 -12 -7 -9 -22 3
-16 2 -19 -5 -10 -10 15 -62 6 -62 -10 0 -5 9 -6 20 -3 14 4 20 2 20 -9 0 -10
-16 -17 -57 -22 -41 -5 -64 -13 -79 -30 -12 -12 -20 -24 -18 -26 2 -2 -7 -4
-21 -4 -19 0 -22 3 -14 17 5 10 12 19 16 21 5 3 2 3 -4 2 -29 -7 -9 13 37 38
28 16 50 34 49 40 0 10 -2 10 -6 1 -8 -20 -23 -15 -23 8 0 11 4 18 9 14 5 -3
13 4 16 16 6 17 9 19 16 8 6 -10 9 -3 9 20 0 28 -2 31 -14 22 -11 -10 -17 -7
-30 11 -9 12 -16 18 -16 12 0 -6 -14 -11 -31 -12 -17 0 -37 -6 -46 -13 -12
-11 -17 -10 -24 3 -9 17 -49 14 -49 -4 0 -5 9 -6 20 -3 12 4 20 2 20 -5 0 -17
-29 -23 -45 -10 -8 7 -15 8 -15 3 0 -5 -7 -10 -15 -10 -8 0 -15 4 -15 9 0 5
-9 4 -20 -2 -11 -6 -20 -8 -20 -5 0 3 -13 -7 -30 -22 -16 -14 -30 -32 -30 -39
0 -6 -7 -14 -15 -18 -8 -3 -15 -1 -15 3 0 5 6 12 13 14 9 4 8 6 -2 6 -11 1
-11 4 -1 16 7 8 9 15 4 16 -5 0 0 4 11 9 l20 9 -20 0 c-17 1 -17 3 -5 11 10 6
11 10 3 10 -7 0 -13 11 -13 25 0 21 -5 25 -27 25 -19 0 -24 3 -15 9 11 7 11 9
-2 14 -9 4 -16 1 -16 -4z"/>
</g>
</svg>
