<?xml version="1.0" standalone="no"?>
<!DOCTYPE svg PUBLIC "-//W3C//DTD SVG 20010904//EN"
 "http://www.w3.org/TR/2001/REC-SVG-20010904/DTD/svg10.dtd">
<svg version="1.0" xmlns="http://www.w3.org/2000/svg"
 width="150.000000pt" height="150.000000pt" viewBox="0 0 150.000000 150.000000"
 preserveAspectRatio="xMidYMid meet">
<metadata>
Created by potrace 1.11, written by Peter Selinger 2001-2013
</metadata>
<g transform="translate(0.000000,150.000000) scale(0.100000,-0.100000)"
fill="#000000" stroke="none">
<path d="M688 1443 c-84 -58 -97 -71 -197 -186 -91 -105 -208 -207 -239 -207
-18 0 -2 25 78 125 76 92 110 159 110 212 0 105 -99 112 -215 17 l-40 -32 -33
29 c-38 34 -42 35 -75 9 -22 -18 -26 -30 -32 -109 -8 -103 0 -126 51 -147 19
-8 34 -19 34 -24 0 -5 -29 -42 -65 -81 -65 -70 -65 -71 -65 -129 0 -73 19 -90
97 -90 29 0 53 -3 53 -6 0 -3 -22 -31 -49 -62 -78 -92 -101 -139 -101 -210 0
-52 3 -63 22 -76 12 -9 35 -16 50 -16 45 0 40 -16 -17 -54 l-55 -36 0 -105 c0
-85 3 -107 15 -111 26 -10 100 37 248 157 167 137 443 335 547 394 32 18 -48
-60 -112 -109 -197 -151 -277 -218 -301 -254 -14 -22 -71 -77 -126 -122 -103
-83 -121 -103 -121 -139 0 -29 35 -61 65 -61 58 0 184 93 405 298 153 143 225
199 307 241 85 43 79 18 -17 -65 -34 -30 -81 -77 -104 -104 -22 -26 -90 -89
-149 -140 -122 -103 -151 -140 -142 -184 9 -50 32 -66 92 -66 65 0 141 35 226
106 61 50 76 49 77 -3 0 -27 44 -63 78 -63 14 0 63 20 109 45 45 25 85 45 88
45 3 0 5 -14 5 -31 0 -35 47 -89 78 -89 46 0 124 34 152 67 37 41 37 57 4 90
-30 30 -27 39 31 111 40 49 44 83 15 112 -45 45 -136 15 -289 -93 -154 -110
-145 -80 14 48 50 40 115 85 145 100 74 36 110 72 110 106 0 40 -37 72 -75 66
-55 -9 -179 -77 -249 -136 -38 -32 -83 -66 -100 -76 -41 -23 109 131 184 188
30 23 101 89 157 147 86 88 102 110 103 137 0 63 -48 84 -125 53 -30 -12 -59
-20 -65 -18 -12 4 77 124 161 217 l59 66 0 76 c0 72 -1 77 -23 83 -35 8 -93
-12 -135 -47 -20 -17 -93 -84 -162 -147 -107 -99 -199 -175 -247 -204 -29 -16
-9 13 58 89 39 44 86 105 104 135 18 30 49 82 69 114 57 94 44 176 -28 176
-41 0 -100 -46 -175 -138 -59 -71 -212 -202 -271 -232 -22 -11 -40 -18 -40
-15 0 4 31 41 68 83 126 143 162 240 109 290 -35 33 -76 28 -139 -15z m46
-485 c-3 -7 -47 -44 -97 -82 -51 -37 -144 -115 -207 -173 -121 -110 -186 -160
-196 -150 -7 7 1 18 98 136 36 44 80 92 96 106 30 25 290 175 304 175 4 0 5
-6 2 -12z"/>
</g>
</svg>
